<?xml version="1.0" encoding="UTF-8"?>
<svg id="Layer_1" data-name="Layer 1" xmlns="http://www.w3.org/2000/svg" viewBox="0 0 246.12 223.03">
  <defs>
    <style>
      .cls-1 {
        fill: #0c0c15;
      }
    </style>
  </defs>
  <path class="cls-1" d="m207.42,0h-75.08C72.41,0,23.83,48.58,23.83,108.5v28.47c0,.73.59,1.32,1.32,1.32h15.14c.73,0,1.32-.59,1.32-1.32v-28.47c0-50.1,40.62-90.72,90.72-90.72h101.33c1.01,0,1.65-1.09,1.11-1.95C229.01,6.66,220.37,0,207.44,0h-.02Z"/>
  <path class="cls-1" d="m244.42,43.78c-.11-.63-.66-1.09-1.3-1.09h-110.78c-37.33,0-67.59,30.26-67.59,67.59v26.69c0,.73.59,1.32,1.32,1.32h11.17c2.92,0,5.3-2.37,5.3-5.3v-22.72c0-27.51,22.3-49.81,49.81-49.81h112.46c.75,0,1.36-.63,1.32-1.39-.25-4.29-.73-9.62-1.69-15.31Z"/>
  <path class="cls-1" d="m38.7,223.03h75.08c59.93,0,108.5-48.58,108.51-108.5v-28.47c0-.73-.59-1.32-1.32-1.32h-15.14c-.73,0-1.32.59-1.32,1.32v28.47c0,50.1-40.62,90.72-90.72,90.72H12.45c-1.01,0-1.65,1.09-1.11,1.95,5.77,9.18,14.4,15.83,27.34,15.84h.02Z"/>
  <path class="cls-1" d="m1.7,179.24c.11.63.66,1.09,1.3,1.09h110.78c37.33,0,67.59-30.26,67.59-67.59v-26.69c0-.73-.59-1.32-1.32-1.32h-11.17c-2.93,0-5.3,2.37-5.3,5.3v22.72c0,27.51-22.3,49.81-49.81,49.81H1.32c-.76,0-1.36.63-1.32,1.39.25,4.29.73,9.62,1.69,15.31Z"/>
</svg>