<?xml version="1.0" encoding="UTF-8"?>
<svg id="Layer_1" data-name="Layer 1" xmlns="http://www.w3.org/2000/svg" viewBox="0 0 653.1 148.6">
  <defs>
    <style>
      .cls-1, .cls-2 {
        fill: #00f99b;
      }

      .cls-2 {
        fill-rule: evenodd;
      }
    </style>
  </defs>
  <path class="cls-1" d="m138.2,0h-50C48.3,0,15.9,32.4,15.9,72.3v19c0,.5.4.9.9.9h10.1c.5,0,.9-.4.9-.9v-19c0-33.4,27.1-60.4,60.4-60.4h67.5c.7,0,1.1-.7.7-1.3-3.8-6.1-9.6-10.6-18.2-10.6h0Z"/>
  <path class="cls-1" d="m162.8,29.2c-.1-.4-.4-.7-.9-.7h-73.8c-24.9,0-45,20.2-45,45v17.8c0,.5.4.9.9.9h7.4c1.9,0,3.5-1.6,3.5-3.5v-15.2c0-18.3,14.9-33.2,33.2-33.2h74.9c.5,0,.9-.4.9-.9-.1-2.9-.4-6.4-1.1-10.2Z"/>
  <path class="cls-1" d="m25.8,148.6h50c39.9,0,72.3-32.4,72.3-72.3v-19c0-.5-.4-.9-.9-.9h-10.1c-.5,0-.9.4-.9.9v19c0,33.4-27.1,60.4-60.4,60.4H8.3c-.7,0-1.1.7-.7,1.3,3.8,6.1,9.6,10.6,18.2,10.6h0Z"/>
  <path class="cls-1" d="m1.1,119.4c.1.4.4.7.9.7h73.8c24.9,0,45-20.2,45-45v-17.8c0-.5-.4-.9-.9-.9h-7.4c-1.9,0-3.5,1.6-3.5,3.5v15.1c0,18.3-14.9,33.2-33.2,33.2H.9c-.5,0-.9.4-.9.9.2,3,.5,6.5,1.1,10.3Z"/>
  <path class="cls-2" d="m622.1,52.7c-16.7,0-30.9,12.9-30.9,29.8s14.1,30.5,30.9,30.5c7.4,0,14-2.5,19.3-6.6v5.5h11.7v-29.2c-.1-17-14.3-30-31-30Zm-19.3,30.1c0-10.7,8.6-19.4,19.3-19.4s19.3,8.6,19.3,19.3-8.5,19.6-19.3,19.6c-10.7-.1-19.3-8.8-19.3-19.5Z"/>
  <path class="cls-1" d="m558.6,59.4c4.7-3.5,10.4-5.5,16.6-5.7h9.5v11.7h-9c-9.3,0-16.9,7.4-17.1,16.6v27.4c0,1.3-1,2.3-2.3,2.3h-9.4v-54.9c0-1.3,1-2.3,2.3-2.3h9.3v4.9h.1Z"/>
  <path class="cls-1" d="m508.2,35.5h-11.7v47.5c0,15.9,12.9,28.8,28.8,28.8h9v-9.4c0-1.3-1-2.3-2.3-2.3h-6.7c-9.4,0-17.1-7.7-17.1-17.1v-17.8h26.1v-10.8h-26.1v-18.9Z"/>
  <path class="cls-1" d="m462.9,52.7c-16.5,0-30.9,12.9-30.9,29.8s14.1,30.5,30.9,30.5c8.5,0,16-3.3,21.5-8.6l.4-.4-6.2-6.2c-.9-.9-2.4-.9-3.3-.1-3.3,2.8-7.6,4.6-12.4,4.6h-.1c-10.6-.1-19.1-8.8-19.1-19.5s8.6-19.4,19.3-19.4c4.5,0,8.6,1.5,11.9,4.1.9.7,2.3.8,3.2-.1l6.3-6.3-.4-.4c-5.6-5-13-8-21.1-8Z"/>
  <path class="cls-2" d="m391.7,53.3c-16.8,0-29.4,13.6-29.4,30.1s12.8,30.2,29.2,30.2c12.5,0,23.2-7.8,27.5-19.5l.3-.7h-10.3c-.9,0-1.6.5-2.1,1.2-3.1,5.2-9,8.2-15.1,8.2-8.7,0-15.5-6-17.8-14.2h46.5l.1-.5c.2-1.8.3-3.6.3-5.4,0-16-13-29.4-29.2-29.4Zm-17.7,26.1c.9-8.6,8.9-15.4,17.6-15.4s16.7,6.7,17.6,15.4h-35.2Z"/>
  <path class="cls-2" d="m319.9,53c-7.2,0-13.9,2.4-19.3,6.5v-5.1h-9.3c-1.3,0-2.3,1-2.3,2.3v25.8h0v48.4h9.4c1.3,0,2.3-1,2.3-2.3v-22c5.3,4.2,12,6.7,19.3,6.7,17.4,0,30.9-14,30.9-30.3-.1-16.3-14.3-30-31-30Zm-19.3,30.2c0-10.7,8.6-19.4,19.3-19.4s19.3,8.6,19.3,19.3-8.5,19.6-19.3,19.6c-10.7-.1-19.3-8.9-19.3-19.5Z"/>
  <path class="cls-1" d="m245.9,113.6c-9.5,0-17.3-2.3-23.3-6.9s-9-10.2-9.2-16.8h12.2c.5,4.3,2.8,7.6,6.7,10,4,2.3,8.5,3.5,13.4,3.5s9.3-1.1,12.6-3.4,5-5.3,5-9c0-6.3-4.4-11-13.3-14l-12.8-4.2c-7.4-2.3-12.8-5.3-16.3-9-3.4-3.8-5.2-8.6-5.3-14.4,0-6.6,2.6-11.9,7.9-15.8,5.4-4,12.2-6,20.5-6,8.8,0,15.7,2.3,20.8,6.8,5.2,4.5,8.1,9.7,8.7,15.7h-12.1c-1.1-4.1-3.3-7.2-6.6-9.3-3.2-2-6.8-3-11.1-3-4.6,0-8.4,1-11.5,3-3,2-4.5,4.8-4.5,8.2s1.1,6.2,3.2,8.2,5.5,3.8,10.3,5.3l12,3.9c7.4,2.3,12.9,5.5,16.7,9.4,3.8,3.8,5.7,8.8,5.7,14.9,0,7-2.8,12.5-8.3,16.8-5.5,4-12.7,6.1-21.4,6.1Z"/>
</svg>