<?xml version="1.0" encoding="utf-8"?>
<!-- Generator: Adobe Illustrator 27.9.0, SVG Export Plug-In . SVG Version: 6.00 Build 0)  -->
<svg version="1.1" id="Layer_1" xmlns="http://www.w3.org/2000/svg" xmlns:xlink="http://www.w3.org/1999/xlink" x="0px" y="0px"
	 viewBox="0 0 120 120" style="enable-background:new 0 0 120 120;" xml:space="preserve">
<style type="text/css">
	.st0{fill:#00F99B;}
	.st1{fill:#0C0C15;}
</style>
<circle class="st0" cx="60" cy="60" r="59.5"/>
<g>
	<path class="st1" d="M80.8,32.5H62.3c-14.8,0-26.8,12-26.8,26.8l0,7c0,0.2,0.1,0.3,0.3,0.3h3.7c0.2,0,0.3-0.1,0.3-0.3l0-7
		c0-12.4,10-22.4,22.4-22.4l25,0c0.3,0,0.4-0.3,0.3-0.5C86.2,34.2,84,32.5,80.8,32.5C80.8,32.5,80.8,32.5,80.8,32.5z"/>
	<path class="st1" d="M90,43.4c0-0.2-0.2-0.3-0.3-0.3H62.3c-9.2,0-16.7,7.5-16.7,16.7l0,6.6c0,0.2,0.1,0.3,0.3,0.3h2.8
		c0.7,0,1.3-0.6,1.3-1.3v-5.6c0-6.8,5.5-12.3,12.3-12.3l27.8,0c0.2,0,0.3-0.2,0.3-0.3C90.3,46.1,90.2,44.8,90,43.4z"/>
	<path class="st1" d="M39.2,87.6h18.5c14.8,0,26.8-12,26.8-26.8v-7c0-0.2-0.1-0.3-0.3-0.3l-3.7,0c-0.2,0-0.3,0.1-0.3,0.3v7
		c0,12.4-10,22.4-22.4,22.4h-25c-0.3,0-0.4,0.3-0.3,0.5C33.8,86,36,87.6,39.2,87.6C39.2,87.6,39.2,87.6,39.2,87.6z"/>
	<path class="st1" d="M30,76.8c0,0.2,0.2,0.3,0.3,0.3h27.4c9.2,0,16.7-7.5,16.7-16.7v-6.6c0-0.2-0.1-0.3-0.3-0.3h-2.8
		c-0.7,0-1.3,0.6-1.3,1.3v5.6c0,6.8-5.5,12.3-12.3,12.3H29.9c-0.2,0-0.3,0.2-0.3,0.3C29.7,74.1,29.8,75.4,30,76.8z"/>
</g>
</svg>
