<?xml version="1.0" encoding="utf-8"?>
<!-- Generator: Adobe Illustrator 27.9.0, SVG Export Plug-In . SVG Version: 6.00 Build 0)  -->
<svg version="1.1" id="Layer_1" xmlns="http://www.w3.org/2000/svg" xmlns:xlink="http://www.w3.org/1999/xlink" x="0px" y="0px"
	 viewBox="0 0 528 120" style="enable-background:new 0 0 528 120;" xml:space="preserve">
<style type="text/css">
	.st0{fill:#00F99B;}
	.st1{fill-rule:evenodd;clip-rule:evenodd;fill:#00F99B;}
</style>
<g>
	<path class="st0" d="M114.6,1.1l-39.7,0c-31.7,0-57.3,25.7-57.3,57.3l0,15c0,0.4,0.3,0.7,0.7,0.7h8c0.4,0,0.7-0.3,0.7-0.7l0-15
		c0-26.5,21.5-47.9,47.9-47.9h53.5c0.5,0,0.9-0.6,0.6-1C126,4.6,121.5,1.1,114.6,1.1C114.6,1.1,114.6,1.1,114.6,1.1z"/>
	<path class="st0" d="M134.2,24.2c-0.1-0.3-0.3-0.6-0.7-0.6H74.9c-19.7,0-35.7,16-35.7,35.7v14.1c0,0.4,0.3,0.7,0.7,0.7h5.9
		c1.5,0,2.8-1.3,2.8-2.8v-12C48.6,44.8,60.4,33,74.9,33h59.4c0.4,0,0.7-0.3,0.7-0.7C134.9,30,134.7,27.2,134.2,24.2z"/>
	<path class="st0" d="M25.5,118.9h39.7c31.7,0,57.3-25.7,57.3-57.3l0-15c0-0.4-0.3-0.7-0.7-0.7l-8,0c-0.4,0-0.7,0.3-0.7,0.7v15
		c0,26.5-21.5,47.9-47.9,47.9H11.6c-0.5,0-0.9,0.6-0.6,1C14,115.4,18.6,118.9,25.5,118.9C25.4,118.9,25.4,118.9,25.5,118.9z"/>
	<path class="st0" d="M5.9,95.8c0.1,0.3,0.3,0.6,0.7,0.6h58.5c19.7,0,35.7-16,35.7-35.7V46.5c0-0.4-0.3-0.7-0.7-0.7h-5.9
		c-1.5,0-2.8,1.3-2.8,2.8v12C91.4,75.2,79.7,87,65.1,87H5.7C5.3,87,5,87.3,5,87.7C5.1,90,5.4,92.8,5.9,95.8z"/>
	<path class="st1" d="M498.5,42.8c-13.3,0-24.5,10.3-24.5,23.7c0,13.4,11.2,24.2,24.5,24.2c5.8,0,11.1-2,15.3-5.3v4.3h9.3V66.6
		C523,53.2,511.7,42.8,498.5,42.8z M483.2,66.7c0-8.5,6.8-15.4,15.3-15.4c8.5,0,15.3,6.8,15.3,15.3c0,8.5-6.7,15.5-15.3,15.5
		C490,82.2,483.2,75.2,483.2,66.7z"/>
	<path class="st0" d="M448.1,48.2c3.7-2.7,8.2-4.4,13.1-4.5v0h7.6v9.3h-7.1c-7.4,0-13.4,5.9-13.6,13.2V69c0,0,0,0.1,0,0.1v18.8
		c0,1-0.8,1.8-1.8,1.8h-7.4V66.5c0-0.3,0-0.6,0-0.9V46.1c0-1,0.8-1.8,1.8-1.8h7.4V48.2z"/>
	<path class="st0" d="M408.1,29.3h-9.3v37.7c0,12.6,10.2,22.9,22.8,22.9h7.1v-7.4c0-1-0.8-1.8-1.8-1.8h-5.3
		c-7.5,0-13.6-6.1-13.6-13.6V52.8h20.7v-8.5h-20.7V29.3z"/>
	<path class="st0" d="M372.2,42.8c-13.1,0-24.5,10.3-24.5,23.7c0,13.4,11.2,24.2,24.5,24.2c6.7,0,12.7-2.6,17.1-6.8l0.3-0.3l-5-5
		c-0.7-0.7-1.9-0.7-2.6-0.1c-2.6,2.3-6.1,3.6-9.8,3.6h-0.1l0,0c-8.4-0.1-15.2-7-15.2-15.4c0-8.5,6.8-15.4,15.3-15.4
		c3.6,0,6.8,1.2,9.4,3.3c0.7,0.6,1.9,0.6,2.6-0.1l5-5l-0.3-0.3C384.5,45.2,378.6,42.8,372.2,42.8z"/>
	<path class="st1" d="M315.7,43.3c-13.3,0-23.3,10.8-23.3,23.9c0,13.1,10.2,24,23.2,24c9.9,0,18.4-6.2,21.9-15.4l0.2-0.6h-8.2
		c-0.7,0-1.3,0.4-1.6,1c-2.5,4.1-7.1,6.5-11.9,6.5c-6.9,0-12.3-4.8-14.1-11.3h36.8l0-0.4c0.2-1.4,0.2-2.9,0.2-4.2
		C338.9,54,328.6,43.3,315.7,43.3z M301.7,64.1c0.7-6.9,7.1-12.2,13.9-12.2c6.9,0,13.2,5.3,13.9,12.2H301.7z"/>
	<path class="st1" d="M258.8,43.1c-5.7,0-11,1.9-15.3,5.2v-4.1h-7.4c-1,0-1.8,0.8-1.8,1.8v20.5c0,0,0,0,0,0c0,0,0,0,0,0V105h7.4
		c1,0,1.8-0.8,1.8-1.8V85.7c4.2,3.3,9.5,5.3,15.3,5.3c13.8,0,24.5-11.1,24.5-24.1C283.3,54,272,43.1,258.8,43.1z M243.5,67
		c0-8.5,6.8-15.4,15.3-15.4c8.5,0,15.3,6.8,15.3,15.3c0,8.5-6.7,15.5-15.3,15.5C250.3,82.5,243.5,75.5,243.5,67z"/>
	<path class="st0" d="M200,91.2c-7.5,0-13.7-1.8-18.5-5.5c-4.7-3.7-7.2-8.1-7.3-13.3h9.7c0.4,3.4,2.2,6,5.3,7.9
		c3.2,1.9,6.8,2.8,10.7,2.8c4,0,7.4-0.9,10-2.7c2.6-1.8,4-4.2,4-7.2c0-5-3.5-8.7-10.6-11.1l-10.2-3.3c-5.8-1.8-10.2-4.2-13-7.2
		c-2.7-3-4.1-6.8-4.2-11.4c0-5.3,2.1-9.5,6.3-12.6c4.2-3.2,9.7-4.7,16.3-4.7c7,0,12.5,1.8,16.5,5.4c4.1,3.5,6.4,7.7,6.9,12.5h-9.6
		c-0.9-3.3-2.6-5.7-5.2-7.4c-2.5-1.6-5.4-2.4-8.8-2.4c-3.6,0-6.7,0.8-9.1,2.4c-2.4,1.6-3.6,3.8-3.6,6.5c0,2.7,0.8,4.9,2.5,6.5
		c1.7,1.6,4.4,3,8.1,4.2l9.5,3.1c5.8,1.9,10.3,4.3,13.3,7.4c3,3,4.5,7,4.5,11.8c0,5.5-2.2,10-6.6,13.3C212.7,89.5,207,91.2,200,91.2
		z"/>
</g>
</svg>
