<?xml version="1.0" encoding="UTF-8"?>
<svg id="Layer_1" data-name="Layer 1" xmlns="http://www.w3.org/2000/svg" viewBox="0 0 498.5 326.6">
  <defs>
    <style>
      .cls-1, .cls-2 {
        fill: #0c0c15;
      }

      .cls-2 {
        fill-rule: evenodd;
      }
    </style>
  </defs>
  <path class="cls-1" d="m331.7,0h-56.7c-45.3,0-82,36.7-82,82v21.5c0,.6.4,1,1,1h11.4c.6,0,1-.4,1-1v-21.5c0-37.8,30.7-68.5,68.5-68.5h76.5c.8,0,1.2-.8.8-1.5-4.2-7-10.7-12-20.5-12h0Z"/>
  <path class="cls-1" d="m359.7,33.1c-.1-.5-.5-.8-1-.8h-83.7c-28.2,0-51.1,22.9-51.1,51.1v20.2c0,.6.4,1,1,1h8.4c2.2,0,4-1.8,4-4v-17.3c0-20.8,16.8-37.6,37.6-37.6h84.9c.6,0,1-.5,1-1,0-3.3-.4-7.3-1.1-11.6Z"/>
  <path class="cls-1" d="m204.3,168.5h56.7c45.3,0,82-36.7,82-82v-21.5c0-.6-.4-1-1-1h-11.4c-.6,0-1,.4-1,1v21.5c0,37.8-30.7,68.5-68.5,68.5h-76.5c-.8,0-1.2.8-.8,1.5,4.2,6.9,10.7,12,20.5,12h0Z"/>
  <path class="cls-1" d="m176.3,135.4c.1.5.5.8,1,.8h83.7c28.2,0,51.1-22.9,51.1-51.1v-20.1c0-.6-.4-1-1-1h-8.4c-2.2,0-4,1.8-4,4v17.2c0,20.8-16.8,37.6-37.6,37.6h-84.9c-.6,0-1,.5-1,1,0,3.3.4,7.3,1.1,11.6Z"/>
  <path class="cls-2" d="m463.5,237.7c-19,0-35.1,14.7-35.1,33.8s16,34.6,35.1,34.6c8.3,0,15.9-2.9,21.8-7.5v6.2h13.2v-33c.1-19.3-16-34.1-35-34.1Zm-21.8,34.2c0-12.1,9.7-22,21.8-22s21.8,9.7,21.8,21.8-9.6,22.2-21.8,22.2c-12.1.1-21.8-9.9-21.8-22Z"/>
  <path class="cls-1" d="m391.5,245.3c5.3-3.9,11.8-6.3,18.8-6.4h10.8v13.2h-10.2c-10.5,0-19.1,8.4-19.4,18.9v31.1c0,1.4-1.2,2.6-2.6,2.6h-10.6v-62.3c0-1.4,1.2-2.6,2.6-2.6h10.6v5.5h0Z"/>
  <path class="cls-1" d="m334.3,218.3h-13.2v53.9c0,18,14.6,32.7,32.7,32.7h10.2v-10.6c0-1.4-1.2-2.6-2.6-2.6h-7.6c-10.7,0-19.4-8.7-19.4-19.4v-20.2h29.6v-12.2h-29.6v-21.6h-.1Z"/>
  <path class="cls-1" d="m283.1,237.7c-18.7,0-35.1,14.7-35.1,33.8s16,34.6,35.1,34.6c9.6,0,18.1-3.8,24.4-9.8l.5-.4-7.1-7.1c-1-1-2.7-1-3.8-.1-3.8,3.2-8.7,5.2-14,5.2h-.1c-12-.1-21.7-10-21.7-22.1s9.7-22,21.8-22c5.1,0,9.8,1.7,13.5,4.7,1.1.8,2.7.9,3.7-.2l7.2-7.2-.5-.4c-6.4-5.6-14.8-9-23.9-9Z"/>
  <path class="cls-2" d="m202.3,238.5c-19,0-33.4,15.4-33.4,34.2s14.5,34.3,33.1,34.3c14.2,0,26.3-8.8,31.2-22.1l.3-.8h-11.7c-1,0-1.9.6-2.3,1.4-3.5,5.8-10.2,9.4-17.1,9.4-9.9,0-17.6-6.9-20.2-16.2h52.6l.1-.6c.2-2,.4-4.1.4-6.1.1-18.4-14.6-33.5-33-33.5Zm-20.1,29.6c1-9.8,10.1-17.4,19.9-17.4s18.9,7.6,19.9,17.4h-39.8Z"/>
  <path class="cls-2" d="m120.9,238.2c-8.1,0-15.8,2.7-21.9,7.4v-5.8h-10.6c-1.5,0-2.6,1.2-2.6,2.6v29.3h0v54.9h10.6c1.5,0,2.6-1.2,2.6-2.6v-25c6,4.8,13.6,7.6,21.8,7.6,19.7,0,35.1-15.8,35.1-34.4s-16.1-34-35-34Zm-21.9,34.1c0-12.1,9.7-22,21.8-22s21.8,9.7,21.8,21.8-9.6,22.2-21.8,22.2c-12,.1-21.8-9.9-21.8-22Z"/>
  <path class="cls-1" d="m36.9,306.8c-10.8,0-19.6-2.6-26.4-7.8-6.8-5.2-10.3-11.6-10.5-19h13.9c.6,4.9,3.1,8.6,7.6,11.3,4.6,2.7,9.7,4,15.2,4,5.8,0,10.6-1.3,14.3-3.9,3.8-2.6,5.7-6,5.7-10.2,0-7.2-5-12.5-15.1-15.8l-14.6-4.8c-8.4-2.6-14.5-6-18.5-10.2-3.9-4.3-5.9-9.7-6-16.4,0-7.5,3-13.5,9-18,6.1-4.5,13.8-6.8,23.3-6.8,10,0,17.8,2.6,23.6,7.7,5.9,5.1,9.2,11,9.9,17.8h-13.8c-1.3-4.7-3.8-8.2-7.5-10.5-3.6-2.3-7.8-3.5-12.5-3.5-5.2,0-9.5,1.2-13,3.5-3.4,2.3-5.1,5.4-5.1,9.3s1.2,7,3.6,9.3,6.3,4.3,11.6,6l13.6,4.4c8.4,2.7,14.7,6.2,19,10.6,4.3,4.3,6.4,10,6.4,16.9,0,7.9-3.1,14.2-9.4,19-6.2,4.7-14.3,7.1-24.3,7.1Z"/>
</svg>